{
  "asset": {
    "version": "2.0",
    "generator": "generateGLTF"
  },
  "buffers": [
    {
      "uri": "output.bin",
      "byteLength": 833496
    }
  ],
  "bufferViews": [
    {
      "buffer": 0,
      "byteOffset": 0,
      "byteLength": 419016,
      "target": 34962
    },
    {
      "buffer": 0,
      "byteOffset": 419016,
      "byteLength": 414480,
      "target": 34963
    }
  ],
  "accessors": [
    {
      "bufferView": 0,
      "byteOffset": 0,
      "componentType": 5126,
      "count": 34918,
      "type": "VEC3",
      "min": [
        0,
        0,
        -37.25
      ],
      "max": [
        220,
        157,
        4.53
      ]
    },
    {
      "bufferView": 1,
      "byteOffset": 0,
      "componentType": 5123,
      "count": 207240,
      "type": "SCALAR"
    }
  ],
  "meshes": [
    {
      "primitives": [
        {
          "attributes": {
            "POSITION": 0
          },
          "indices": 1,
          "mode": 4
        }
      ]
    }
  ],
  "nodes": [
    {
      "mesh": 0
    }
  ],
  "scenes": [
    {
      "nodes": [
        0
      ]
    }
  ],
  "scene": 0
}